#Comment line ignore any data following # character 
#Hierarchical Translation and Rotation (.htr) file 
[Header]	
#Header keywords are followed by a single value 
FileType HTR		#Single word string
DataType HTRS		#Translation followed by rotation and scale data
FileVersion 1		#integer
NumSegments 84		#integer
NumFrames 2		#integer
DataFrameRate 30		#integer, data frame rate in this file
EulerRotationOrder ZYX
CalibrationUnits mm
RotationUnits Degrees
GlobalAxisofGravity Y
BoneLengthAxis Y
ScaleFactor 1.00
[SegmentNames&Hierarchy]
#CHILD	PARENT
MASTER GLOBAL
root MASTER
chest root
L_mid_tent01 root
R_mid_tent01 root
spine01 root
Bip01_Neck chest
L_humerus chest
R_humerus chest
weapon_bone chest
Bip01_Head Bip01_Neck
eye_left_bone Bip01_Head
eye_right_bone Bip01_Head
L_forearm L_humerus
L_front_hand L_forearm
L_weapon_bone L_forearm
L_front_hand01_01 L_front_hand
L_front_hand02_01 L_front_hand
L_front_hand03_01 L_front_hand
L_front_hand01_02 L_front_hand01_01
L_front_hand02_02 L_front_hand02_01
L_front_hand03_02 L_front_hand03_01
R_forearm R_humerus
R_front_hand R_forearm
R_weapon_bone R_forearm
R_front_hand01_01 R_front_hand
R_front_hand02_01 R_front_hand
R_front_hand03_01 R_front_hand
R_front_hand01_02 R_front_hand01_01
R_front_hand02_02 R_front_hand02_01
R_front_hand03_02 R_front_hand03_01
null_rope01_connect L_mid_tent01
Rope1_Seg01 null_rope01_connect
Rope1_Seg02 Rope1_Seg01
Rope1_Seg03 Rope1_Seg02
Rope1_Seg04 Rope1_Seg03
Rope1_Seg05 Rope1_Seg04
Rope1_Seg06 Rope1_Seg05
Rope1_Seg07 Rope1_Seg06
Rope1_Seg09 Rope1_Seg07
L_mid_hand01 Rope1_Seg09
L_mid_hand02 Rope1_Seg09
L_mid_hand03 Rope1_Seg09
null_rope02_connect R_mid_tent01
Rope2_Seg01 null_rope02_connect
Rope2_Seg02 Rope2_Seg01
Rope2_Seg03 Rope2_Seg02
Rope2_Seg04 Rope2_Seg03
Rope2_Seg05 Rope2_Seg04
Rope2_Seg06 Rope2_Seg05
Rope2_Seg07 Rope2_Seg06
Rope2_Seg09 Rope2_Seg07
R_mid_hand01 Rope2_Seg09
R_mid_hand02 Rope2_Seg09
R_mid_hand03 Rope2_Seg09
spine02 spine01
spine03 spine02
pelvis spine03
null_rope03_connect pelvis
null_rope04_connect pelvis
Rope3_Seg01 null_rope03_connect
Rope3_Seg02 Rope3_Seg01
Rope3_Seg03 Rope3_Seg02
Rope3_Seg04 Rope3_Seg03
Rope3_Seg05 Rope3_Seg04
Rope3_Seg06 Rope3_Seg05
Rope3_Seg07 Rope3_Seg06
Rope3_Seg08 Rope3_Seg07
Rope3_Seg09 Rope3_Seg08
R_rear_hand01 Rope3_Seg09
R_rear_hand02 Rope3_Seg09
R_rear_hand03 Rope3_Seg09
Rope4_Seg01 null_rope04_connect
Rope4_Seg02 Rope4_Seg01
Rope4_Seg03 Rope4_Seg02
Rope4_Seg04 Rope4_Seg03
Rope4_Seg05 Rope4_Seg04
Rope4_Seg06 Rope4_Seg05
Rope4_Seg07 Rope4_Seg06
Rope4_Seg08 Rope4_Seg07
Rope4_Seg09 Rope4_Seg08
L_rear_hand01 Rope4_Seg09
L_rear_hand02 Rope4_Seg09
L_rear_hand03 Rope4_Seg09
[BasePosition]
#SegmentName Tx, Ty, Tz, Rx, Ry, Rz, BoneLength
MASTER 0.000000 0.000000 0.000000 -90.000000 0.000000 0.000000 10.000000 
root 0.000000 0.000000 0.000000 0.000000 0.000000 0.000000 10.000000 
chest 0.000000 0.000000 0.000000 0.000000 0.000000 0.000000 10.000000 
L_mid_tent01 0.000000 0.000000 0.000000 0.000000 0.000000 0.000000 10.000000 
R_mid_tent01 0.000000 0.000000 0.000000 0.000000 0.000000 0.000000 10.000000 
spine01 0.000000 0.000000 0.000000 0.000000 0.000000 0.000000 10.000000 
Bip01_Neck 0.000000 0.000000 0.000000 0.000000 0.000000 0.000000 10.000000 
L_humerus 0.000000 0.000000 0.000000 0.000000 0.000000 0.000000 10.000000 
R_humerus 0.000000 0.000000 0.000000 0.000000 0.000000 0.000000 10.000000 
weapon_bone 0.000000 0.000000 0.000000 0.000000 0.000000 0.000000 10.000000 
Bip01_Head 0.000000 0.000000 0.000000 0.000000 0.000000 0.000000 10.000000 
eye_left_bone 0.000000 0.000000 0.000000 0.000000 0.000000 0.000000 10.000000 
eye_right_bone 0.000000 0.000000 0.000000 0.000000 0.000000 0.000000 10.000000 
L_forearm 0.000000 0.000000 0.000000 0.000000 0.000000 0.000000 10.000000 
L_front_hand 0.000000 0.000000 0.000000 0.000000 0.000000 0.000000 10.000000 
L_weapon_bone 0.000000 0.000000 0.000000 0.000000 0.000000 0.000000 10.000000 
L_front_hand01_01 0.000000 0.000000 0.000000 0.000000 0.000000 0.000000 10.000000 
L_front_hand02_01 0.000000 0.000000 0.000000 0.000000 0.000000 0.000000 10.000000 
L_front_hand03_01 0.000000 0.000000 0.000000 0.000000 0.000000 0.000000 10.000000 
L_front_hand01_02 0.000000 0.000000 0.000000 0.000000 0.000000 0.000000 10.000000 
L_front_hand02_02 0.000000 0.000000 0.000000 0.000000 0.000000 0.000000 10.000000 
L_front_hand03_02 0.000000 0.000000 0.000000 0.000000 0.000000 0.000000 10.000000 
R_forearm 0.000000 0.000000 0.000000 0.000000 0.000000 0.000000 10.000000 
R_front_hand 0.000000 0.000000 0.000000 0.000000 0.000000 0.000000 10.000000 
R_weapon_bone 0.000000 0.000000 0.000000 0.000000 0.000000 0.000000 10.000000 
R_front_hand01_01 0.000000 0.000000 0.000000 0.000000 0.000000 0.000000 10.000000 
R_front_hand02_01 0.000000 0.000000 0.000000 0.000000 0.000000 0.000000 10.000000 
R_front_hand03_01 0.000000 0.000000 0.000000 0.000000 0.000000 0.000000 10.000000 
R_front_hand01_02 0.000000 0.000000 0.000000 0.000000 0.000000 0.000000 10.000000 
R_front_hand02_02 0.000000 0.000000 0.000000 0.000000 0.000000 0.000000 10.000000 
R_front_hand03_02 0.000000 0.000000 0.000000 0.000000 0.000000 0.000000 10.000000 
null_rope01_connect 0.000000 0.000000 0.000000 0.000000 0.000000 0.000000 10.000000 
Rope1_Seg01 0.000000 0.000000 0.000000 0.000000 0.000000 0.000000 10.000000 
Rope1_Seg02 0.000000 0.000000 0.000000 0.000000 0.000000 0.000000 10.000000 
Rope1_Seg03 0.000000 0.000000 0.000000 0.000000 0.000000 0.000000 10.000000 
Rope1_Seg04 0.000000 0.000000 0.000000 0.000000 0.000000 0.000000 10.000000 
Rope1_Seg05 0.000000 0.000000 0.000000 0.000000 0.000000 0.000000 10.000000 
Rope1_Seg06 0.000000 0.000000 0.000000 0.000000 0.000000 0.000000 10.000000 
Rope1_Seg07 0.000000 0.000000 0.000000 0.000000 0.000000 0.000000 10.000000 
Rope1_Seg09 0.000000 0.000000 0.000000 0.000000 0.000000 0.000000 10.000000 
L_mid_hand01 0.000000 0.000000 0.000000 0.000000 0.000000 0.000000 10.000000 
L_mid_hand02 0.000000 0.000000 0.000000 0.000000 0.000000 0.000000 10.000000 
L_mid_hand03 0.000000 0.000000 0.000000 0.000000 0.000000 0.000000 10.000000 
null_rope02_connect 0.000000 0.000000 0.000000 0.000000 0.000000 0.000000 10.000000 
Rope2_Seg01 0.000000 0.000000 0.000000 0.000000 0.000000 0.000000 10.000000 
Rope2_Seg02 0.000000 0.000000 0.000000 0.000000 0.000000 0.000000 10.000000 
Rope2_Seg03 0.000000 0.000000 0.000000 0.000000 0.000000 0.000000 10.000000 
Rope2_Seg04 0.000000 0.000000 0.000000 0.000000 0.000000 0.000000 10.000000 
Rope2_Seg05 0.000000 0.000000 0.000000 0.000000 0.000000 0.000000 10.000000 
Rope2_Seg06 0.000000 0.000000 0.000000 0.000000 0.000000 0.000000 10.000000 
Rope2_Seg07 0.000000 0.000000 0.000000 0.000000 0.000000 0.000000 10.000000 
Rope2_Seg09 0.000000 0.000000 0.000000 0.000000 0.000000 0.000000 10.000000 
R_mid_hand01 0.000000 0.000000 0.000000 0.000000 0.000000 0.000000 10.000000 
R_mid_hand02 0.000000 0.000000 0.000000 0.000000 0.000000 0.000000 10.000000 
R_mid_hand03 0.000000 0.000000 0.000000 0.000000 0.000000 0.000000 10.000000 
spine02 0.000000 0.000000 0.000000 0.000000 0.000000 0.000000 10.000000 
spine03 0.000000 0.000000 0.000000 0.000000 0.000000 0.000000 10.000000 
pelvis 0.000000 0.000000 0.000000 0.000000 0.000000 0.000000 10.000000 
null_rope03_connect 0.000000 0.000000 0.000000 0.000000 0.000000 0.000000 10.000000 
null_rope04_connect 0.000000 0.000000 0.000000 0.000000 0.000000 0.000000 10.000000 
Rope3_Seg01 0.000000 0.000000 0.000000 0.000000 0.000000 0.000000 10.000000 
Rope3_Seg02 0.000000 0.000000 0.000000 0.000000 0.000000 0.000000 10.000000 
Rope3_Seg03 0.000000 0.000000 0.000000 0.000000 0.000000 0.000000 10.000000 
Rope3_Seg04 0.000000 0.000000 0.000000 0.000000 0.000000 0.000000 10.000000 
Rope3_Seg05 0.000000 0.000000 0.000000 0.000000 0.000000 0.000000 10.000000 
Rope3_Seg06 0.000000 0.000000 0.000000 0.000000 0.000000 0.000000 10.000000 
Rope3_Seg07 0.000000 0.000000 0.000000 0.000000 0.000000 0.000000 10.000000 
Rope3_Seg08 0.000000 0.000000 0.000000 0.000000 0.000000 0.000000 10.000000 
Rope3_Seg09 0.000000 0.000000 0.000000 0.000000 0.000000 0.000000 10.000000 
R_rear_hand01 0.000000 0.000000 0.000000 0.000000 0.000000 0.000000 10.000000 
R_rear_hand02 0.000000 0.000000 0.000000 0.000000 0.000000 0.000000 10.000000 
R_rear_hand03 0.000000 0.000000 0.000000 0.000000 0.000000 0.000000 10.000000 
Rope4_Seg01 0.000000 0.000000 0.000000 0.000000 0.000000 0.000000 10.000000 
Rope4_Seg02 0.000000 0.000000 0.000000 0.000000 0.000000 0.000000 10.000000 
Rope4_Seg03 0.000000 0.000000 0.000000 0.000000 0.000000 0.000000 10.000000 
Rope4_Seg04 0.000000 0.000000 0.000000 0.000000 0.000000 0.000000 10.000000 
Rope4_Seg05 0.000000 0.000000 0.000000 0.000000 0.000000 0.000000 10.000000 
Rope4_Seg06 0.000000 0.000000 0.000000 0.000000 0.000000 0.000000 10.000000 
Rope4_Seg07 0.000000 0.000000 0.000000 0.000000 0.000000 0.000000 10.000000 
Rope4_Seg08 0.000000 0.000000 0.000000 0.000000 0.000000 0.000000 10.000000 
Rope4_Seg09 0.000000 0.000000 0.000000 0.000000 0.000000 0.000000 10.000000 
L_rear_hand01 0.000000 0.000000 0.000000 0.000000 0.000000 0.000000 10.000000 
L_rear_hand02 0.000000 0.000000 0.000000 0.000000 0.000000 0.000000 10.000000 
L_rear_hand03 0.000000 0.000000 0.000000 0.000000 0.000000 0.000000 10.000000 
#Beginning of Data. Separated by tabs
#Fr	Tx	Ty	Tz	Rx	Ry	Rz	SF
[MASTER]
37 312.030945 5761.843750 2163.627930 0.001660 0.001660 0.001660 6162.587891
38 312.030945 5761.843750 2163.627930 0.001660 0.001660 0.001660 6162.587891
[root]
37 628.118103 -117.306519 546.129456 -43.397583 -43.352314 -62.064140 840.565613
38 628.118103 -117.306519 546.129456 -43.397583 -43.352314 -62.064140 840.565613
[chest]
37 -84.512650 -34.090519 0.000000 29.108437 -47.146847 173.373276 91.129311
38 -84.512650 -34.090519 0.000000 29.108437 -47.146847 173.373276 91.129311
[L_mid_tent01]
37 27.299395 22.179392 -249.918671 -8.095282 16.864708 66.998566 252.381714
38 27.299402 22.179396 -249.918671 -7.921556 16.923521 67.545509 252.381714
[R_mid_tent01]
37 23.228794 24.509907 226.238495 153.961716 -41.419422 66.410210 228.744751
38 23.228794 24.509907 226.238495 153.635620 -41.800320 67.388412 228.744751
[spine01]
37 -0.361383 -0.195265 0.000000 -0.000001 -0.000007 22.052340 0.410763
38 -0.361383 -0.195265 0.000000 -0.000001 -0.000007 22.052340 0.410763
[Bip01_Neck]
37 165.484543 71.581718 0.000119 176.643677 -1.657967 43.431911 180.302734
38 165.484543 71.581718 0.000119 176.643677 -1.657967 43.431911 180.302734
[L_humerus]
37 -13.983130 -135.272980 -120.471481 166.147217 57.096497 -100.674950 181.680161
38 -13.983130 -135.272980 -120.471481 165.958237 57.768158 -100.864594 181.680161
[R_humerus]
37 -13.983309 -135.273102 125.287651 -176.057602 -40.850224 -88.125854 184.909012
38 -13.983309 -135.273102 125.287651 -176.023987 -41.353870 -88.170059 184.909012
[weapon_bone]
37 235.964890 -300.705902 0.000000 0.000000 -89.951546 -128.212341 382.234833
38 235.964890 -300.705902 0.000000 0.000000 -89.951546 -128.212341 382.234833
[Bip01_Head]
37 213.374313 185.908646 9.281800 13.107246 -2.166770 -48.700684 283.155060
38 213.377075 185.900894 9.381678 13.107245 -2.166770 -48.700680 283.155304
[eye_left_bone]
37 -24.626970 125.451866 -64.772606 0.000000 -90.000000 -99.840431 143.318359
38 -24.626970 125.451866 -64.772606 0.000000 -90.000000 -99.840431 143.318359
[eye_right_bone]
37 -24.626970 125.451866 64.327362 0.000000 -89.965736 80.156380 143.117676
38 -24.626970 125.451866 64.327362 0.000000 -89.965736 80.156380 143.117676
[L_forearm]
37 322.776093 0.000000 -0.000119 0.000432 -0.002307 -111.203720 322.776093
38 322.776093 0.000000 -0.000119 0.000431 -0.002307 -111.170738 322.776093
[L_front_hand]
37 241.149185 -0.042021 -3.300071 -178.667953 -1.835447 -27.422342 241.171753
38 241.149185 -0.042021 -3.300071 -178.667953 -1.835447 -27.422350 241.171753
[L_weapon_bone]
37 156.183838 0.000000 0.000000 0.000014 0.000007 0.000001 156.183838
38 156.183838 0.000000 0.000000 0.000014 0.000007 0.000001 156.183838
[L_front_hand01_01]
37 86.095154 20.947098 -0.655860 -0.366594 -0.477154 75.385574 88.609184
38 86.095154 20.947098 -0.655860 -0.366594 -0.477154 75.385574 88.609184
[L_front_hand02_01]
37 86.935165 -11.437475 24.513514 154.399796 -59.883835 -61.369587 91.046425
38 86.935165 -11.437475 24.513514 154.399796 -59.883835 -61.369587 91.046425
[L_front_hand03_01]
37 86.637497 -14.123976 -20.424902 -153.913849 58.118130 -62.702866 90.126129
38 86.637497 -14.123976 -20.424902 -153.913849 58.118122 -62.702866 90.126129
[L_front_hand01_02]
37 71.020905 -0.000179 0.000030 0.000334 -0.002323 -106.374878 71.020905
38 71.020905 -0.000179 0.000030 0.000334 -0.002323 -106.375572 71.020905
[L_front_hand02_02]
37 71.020927 -0.000119 0.000060 0.000334 -0.002323 -106.374878 71.020927
38 71.020927 -0.000119 0.000060 0.000334 -0.002323 -106.375572 71.020927
[L_front_hand03_02]
37 71.020905 -0.000060 0.000060 0.000334 -0.002323 -106.374878 71.020905
38 71.020905 -0.000060 0.000060 0.000334 -0.002323 -106.375572 71.020905
[R_forearm]
37 322.776428 -0.000060 0.000030 0.201057 0.068315 -109.857788 322.776428
38 322.776428 -0.000060 0.000030 0.201072 0.068271 -109.832420 322.776428
[R_front_hand]
37 238.847015 -0.006795 2.210259 -2.635298 -10.645461 -26.312506 238.857239
38 238.847015 -0.006795 2.210259 -2.635298 -10.645461 -26.312506 238.857239
[R_weapon_bone]
37 155.664093 0.002503 -0.000030 0.003487 0.001180 -90.988930 155.664078
38 155.664093 0.002503 -0.000030 0.003487 0.001180 -90.988930 155.664078
[R_front_hand01_01]
37 87.624611 14.231146 22.918642 -154.633499 -59.950626 61.746044 91.683487
38 87.624611 14.231146 22.918642 -154.633499 -59.950607 61.746044 91.683487
[R_front_hand02_01]
37 89.356956 14.367283 -19.491137 154.602661 58.302849 63.744389 92.579636
38 89.356956 14.367283 -19.491137 154.602661 58.302849 63.744389 92.579636
[R_front_hand03_01]
37 87.286232 -22.307278 -0.143439 0.162155 -0.423168 -75.767921 90.091743
38 87.286232 -22.307278 -0.143439 0.162155 -0.423168 -75.767906 90.091743
[R_front_hand01_02]
37 71.020905 0.000060 0.000119 0.002323 -0.000334 106.381714 71.020905
38 71.020905 0.000060 0.000119 0.002323 -0.000334 106.381714 71.020905
[R_front_hand02_02]
37 71.020844 -0.000030 -0.000119 0.002323 -0.000334 106.381714 71.020836
38 71.020844 -0.000030 -0.000119 0.002323 -0.000334 106.381714 71.020836
[R_front_hand03_02]
37 71.020905 0.000000 0.000030 0.002323 -0.000334 106.381714 71.020905
38 71.020905 0.000000 0.000030 0.002323 -0.000334 106.381714 71.020905
[null_rope01_connect]
37 328.732483 0.000000 -0.000238 65.110977 -38.558155 -4.755103 328.732483
38 328.732483 0.000000 -0.000238 65.090225 -38.545277 -5.268908 328.732483
[Rope1_Seg01]
37 0.000038 -0.000551 0.000153 40.230152 35.322823 -127.723251 0.000573
38 0.000038 -0.000565 0.000153 40.504383 34.686508 -127.414040 0.000587
[Rope1_Seg02]
37 139.999863 -0.000179 0.000000 4.475928 19.729961 -2.837178 139.999863
38 139.999863 -0.000179 0.000000 4.556502 19.961596 -3.071482 139.999863
[Rope1_Seg03]
37 139.999924 0.000060 -0.000060 -0.194641 15.291710 -7.039855 139.999924
38 139.999924 0.000060 -0.000060 -0.248904 15.375767 -7.403093 139.999924
[Rope1_Seg04]
37 139.999924 -0.000060 -0.000119 -1.238634 12.609468 -3.250587 139.999924
38 139.999924 -0.000060 -0.000119 -1.262513 12.719281 -3.346066 139.999924
[Rope1_Seg05]
37 139.999832 0.000119 -0.000060 -9.403274 34.311771 7.798453 139.999832
38 139.999832 0.000119 -0.000060 -9.499640 34.427631 7.876737 139.999832
[Rope1_Seg06]
37 139.999954 0.000119 -0.000060 -14.100061 27.057022 13.059573 139.999954
38 139.999954 0.000119 -0.000060 -14.068926 26.880032 13.057784 139.999954
[Rope1_Seg07]
37 139.999985 0.000060 0.000000 -6.478271 8.636198 7.066648 139.999985
38 139.999985 0.000060 0.000000 -6.453798 8.595252 7.047296 139.999985
[Rope1_Seg09]
37 121.602913 0.000119 -0.000089 -89.793175 -1.359789 0.847147 121.602913
38 121.602913 0.000119 -0.000089 -89.793175 -1.359789 0.847147 121.602913
[L_mid_hand01]
37 103.859421 1.038730 8.195221 130.544373 -67.584534 -38.866943 104.187431
38 103.859421 1.038730 8.195221 130.544357 -67.584518 -38.866943 104.187431
[L_mid_hand02]
37 105.572853 -4.139662 -10.864139 -168.923172 43.409309 -73.498894 106.211075
38 105.572853 -4.139662 -10.864139 -168.923172 43.409309 -73.498886 106.211075
[L_mid_hand03]
37 104.641464 17.579376 -3.913581 -6.012627 17.808174 74.893669 106.179977
38 104.641464 17.579376 -3.913581 -6.012625 17.808174 74.893669 106.179977
[null_rope02_connect]
37 328.732849 0.000179 -0.000119 -96.047806 -16.564537 -10.586013 328.732849
38 328.732849 0.000179 -0.000119 -96.254425 -17.279764 -10.036447 328.732849
[Rope2_Seg01]
37 0.000079 -0.000465 0.000000 49.888134 -25.470469 117.430664 0.000471
38 0.000078 -0.000481 0.000000 49.434616 -26.048994 117.634094 0.000487
[Rope2_Seg02]
37 139.999741 -0.000060 -0.000119 9.320608 -3.936720 -9.429825 139.999756
38 139.999741 -0.000060 -0.000119 9.409523 -3.957939 -9.669394 139.999756
[Rope2_Seg03]
37 140.000107 0.000030 0.000000 18.898457 -11.614880 -19.175186 140.000107
38 140.000107 0.000030 0.000000 19.370632 -11.927445 -19.948399 140.000107
[Rope2_Seg04]
37 139.999802 0.000000 -0.000060 24.517384 -33.306744 -31.098606 139.999802
38 139.999802 0.000000 -0.000060 24.273987 -33.406696 -31.289770 139.999802
[Rope2_Seg05]
37 139.999985 -0.000060 0.000119 2.166260 -13.285028 -10.148208 139.999985
38 139.999985 -0.000060 0.000119 1.997645 -12.475977 -10.011222 139.999985
[Rope2_Seg06]
37 139.999893 -0.000030 -0.000119 0.210709 2.381088 -10.709406 139.999893
38 139.999893 -0.000030 -0.000119 0.243512 2.266804 -10.765081 139.999893
[Rope2_Seg07]
37 139.999893 0.000060 -0.000060 2.076057 -4.565803 -12.752780 139.999893
38 139.999893 0.000060 -0.000060 2.108213 -4.666556 -12.773863 139.999893
[Rope2_Seg09]
37 121.338966 0.000089 -0.000060 33.793236 -1.359788 -0.847141 121.338966
38 121.338966 0.000089 -0.000060 33.793236 -1.359788 -0.847141 121.338966
[R_mid_hand01]
37 104.680779 11.144459 -10.335981 -16.212059 45.237240 70.462852 105.778534
38 104.680779 11.144459 -10.335981 -16.212063 45.237247 70.462852 105.778534
[R_mid_hand02]
37 104.070427 2.443552 8.231699 49.067379 -67.749794 39.286469 104.424065
38 104.070427 2.443552 8.231699 49.067368 -67.749771 39.286453 104.424065
[R_mid_hand03]
37 106.028137 -11.221827 -5.996406 -177.101105 15.551026 -76.585571 106.788818
38 106.028137 -11.221827 -5.996406 -177.101105 15.551026 -76.585571 106.788818
[spine02]
37 129.756927 0.001550 0.000119 0.539316 -4.023684 -15.494611 129.756927
38 129.756927 0.001550 0.000119 0.536509 -4.024063 -15.449575 129.756927
[spine03]
37 78.613724 0.081701 -4.898926 2.001348 3.776211 18.075682 78.766251
38 78.613716 0.081703 -4.898924 1.999926 3.776660 18.057266 78.766243
[pelvis]
37 169.435242 0.051022 0.000000 -0.014647 -0.191306 -0.389784 169.435257
38 169.435242 0.051022 0.000000 -0.012963 -0.191367 -0.974868 169.435257
[null_rope03_connect]
37 -1.257226 -2.466202 137.391083 54.616879 -20.754416 44.459251 137.418976
38 -1.257226 -2.466202 137.391083 54.617565 -20.756435 45.035015 137.418976
[null_rope04_connect]
37 -1.259640 -2.480268 -137.844437 54.616879 -20.754416 44.459251 137.872513
38 -1.259640 -2.480268 -137.844437 54.617565 -20.756435 45.035015 137.872513
[Rope3_Seg01]
37 -0.000034 0.000000 -0.000066 87.785820 -54.114361 -143.796310 0.000074
38 -0.000034 0.000000 -0.000068 88.576408 -54.431297 -144.237549 0.000076
[Rope3_Seg02]
37 139.999924 -0.000119 0.000060 6.327453 1.095471 16.034325 139.999924
38 139.999924 -0.000119 0.000060 5.964259 1.480205 15.663750 139.999924
[Rope3_Seg03]
37 139.999924 -0.000119 0.000119 4.448898 3.514296 22.604336 139.999924
38 139.999924 -0.000119 0.000119 4.340992 3.907018 22.360203 139.999924
[Rope3_Seg04]
37 139.999924 0.000119 0.000000 0.521945 1.855311 26.617771 139.999924
38 139.999924 0.000119 0.000000 0.620971 2.426558 26.818331 139.999924
[Rope3_Seg05]
37 139.999924 -0.000238 0.000060 0.217573 4.574229 8.620925 139.999924
38 139.999924 -0.000238 0.000060 0.328369 4.923302 8.622499 139.999924
[Rope3_Seg06]
37 139.999893 -0.000119 -0.000060 5.496921 13.002762 -3.807706 139.999893
38 139.999893 -0.000119 -0.000060 5.691288 13.097420 -4.315281 139.999893
[Rope3_Seg07]
37 139.999771 0.000060 -0.000119 9.196793 19.257286 -8.244245 139.999771
38 139.999771 0.000060 -0.000119 8.719951 17.902414 -7.664093 139.999771
[Rope3_Seg08]
37 139.999985 -0.000060 0.000000 7.689552 13.736847 -6.054570 139.999985
38 139.999985 -0.000060 0.000000 7.250821 12.789428 -5.520718 139.999985
[Rope3_Seg09]
37 90.185997 -0.000179 -0.000060 89.793228 -1.359877 -0.847183 90.185997
38 90.185997 -0.000179 -0.000060 89.793228 -1.359877 -0.847183 90.185997
[R_rear_hand01]
37 103.366196 -6.073594 -10.757982 -177.714203 24.565960 -73.910950 104.101845
38 103.366196 -6.073594 -10.757982 -177.714203 24.565960 -73.910950 104.101845
[R_rear_hand02]
37 100.509819 12.039542 -7.992327 -12.874829 36.868488 72.167213 101.543350
38 100.509819 12.039542 -7.992327 -12.874831 36.868492 72.167221 101.543350
[R_rear_hand03]
37 101.539970 5.215704 5.435467 71.484581 -71.816612 21.513800 101.819031
38 101.539970 5.215704 5.435467 71.484581 -71.816628 21.513813 101.819031
[Rope4_Seg01]
37 0.000001 -0.000551 -0.000153 -108.191826 19.177067 -134.630249 0.000572
38 0.000001 -0.000565 -0.000153 -108.159599 19.163525 -134.542999 0.000586
[Rope4_Seg02]
37 139.999985 0.000060 0.000119 -0.343145 -9.945794 -3.285157 139.999985
38 139.999985 0.000060 0.000119 -0.324653 -9.988941 -3.326485 139.999985
[Rope4_Seg03]
37 139.999924 0.000000 -0.000238 0.245337 -15.156144 -5.206600 139.999924
38 139.999924 0.000000 -0.000238 0.265602 -15.221632 -5.261048 139.999924
[Rope4_Seg04]
37 139.999985 0.000000 0.000119 0.610721 -16.123739 -4.121716 139.999985
38 139.999985 0.000000 0.000119 0.623446 -16.101631 -4.134951 139.999985
[Rope4_Seg05]
37 139.999802 -0.000060 -0.000119 2.048035 -20.702763 -8.940331 139.999802
38 139.999802 -0.000060 -0.000119 2.098383 -21.005655 -9.194853 139.999802
[Rope4_Seg06]
37 139.999924 0.000000 0.000060 2.729270 -32.201267 -18.684464 139.999924
38 139.999924 0.000000 0.000060 2.485780 -32.345394 -18.925783 139.999924
[Rope4_Seg07]
37 139.999802 0.000000 0.000000 -17.831249 -16.910639 -9.660796 139.999802
38 139.999802 0.000000 0.000000 -21.425283 -16.513306 -9.590003 139.999802
[Rope4_Seg08]
37 139.999924 0.000000 0.000119 -133.430740 -5.253092 -5.779603 139.999924
38 139.999924 0.000000 0.000119 -129.745300 -4.763519 -6.038588 139.999924
[Rope4_Seg09]
37 90.185791 0.000060 0.000060 -135.617828 2.228885 0.850567 90.185791
38 90.185791 0.000060 0.000060 -135.617828 2.228885 0.850567 90.185791
[L_rear_hand01]
37 101.696655 -8.392275 -7.654577 -12.874829 -36.868488 107.832764 102.329041
38 101.696655 -8.392275 -7.654577 -12.874829 -36.868488 107.832764 102.329041
[L_rear_hand02]
37 102.726799 -1.568258 5.773216 71.484581 71.816628 158.486160 102.900848
38 102.726799 -1.568258 5.773216 71.484589 71.816643 158.486160 102.900848
[L_rear_hand03]
37 104.552910 9.721220 -10.420293 -177.714203 -24.565960 -106.089035 105.519653
38 104.552910 9.721220 -10.420293 -177.714203 -24.565960 -106.089035 105.519653
